<svg width="139" height="119" viewBox="0 0 139 119" fill="none" xmlns="http://www.w3.org/2000/svg">
<rect width="139" height="119" fill="white"/>
<path d="M69.5 60C75.6379 60 81.5243 58.2089 85.8645 55.0208C90.2046 51.8327 92.6429 47.5087 92.6429 43C92.6429 38.4913 90.2046 34.1673 85.8645 30.9792C81.5243 27.7911 75.6379 26 69.5 26C63.3621 26 57.4757 27.7911 53.1355 30.9792C48.7954 34.1673 46.3571 38.4913 46.3571 43C46.3571 47.5087 48.7954 51.8327 53.1355 55.0208C57.4757 58.2089 63.3621 60 69.5 60ZM61.2373 66.375C43.4281 66.375 29 76.9734 29 90.0555C29 92.2336 31.4047 94 34.3699 94H104.63C107.595 94 110 92.2336 110 90.0555C110 76.9734 95.5719 66.375 77.7627 66.375H61.2373Z" fill="black"/>
</svg>
