<svg width="35" height="34" viewBox="0 0 35 34" fill="none" xmlns="http://www.w3.org/2000/svg">
<rect x="0.375244" y="-0.00012207" width="33.875" height="33.1779" rx="16.589" fill="white"/>
<path d="M19.2988 6.72192C17.866 6.72192 16.4918 7.2794 15.4787 8.27171C14.4655 9.26403 13.8963 10.6099 13.8963 12.0132V14.9592H11.0053C10.8601 14.9592 10.7424 15.0745 10.7424 15.2166V19.1064C10.7424 19.2486 10.8601 19.3639 11.0053 19.3639H13.8963V27.3437C13.8963 27.4859 14.014 27.6011 14.1591 27.6011H18.1307C18.2758 27.6011 18.3935 27.4859 18.3935 27.3437V19.3639H21.3102C21.4308 19.3639 21.5359 19.2835 21.5651 19.1689L22.558 15.2791C22.5995 15.1166 22.474 14.9592 22.303 14.9592H18.3935V12.0132C18.3935 11.7781 18.4889 11.5526 18.6586 11.3863C18.8284 11.22 19.0587 11.1266 19.2988 11.1266H22.3358C22.481 11.1266 22.5987 11.0113 22.5987 10.8692V6.97934C22.5987 6.83717 22.481 6.72192 22.3358 6.72192H19.2988Z" fill="#474343"/>
</svg>
