<svg width="34" height="34" viewBox="0 0 34 34" fill="none" xmlns="http://www.w3.org/2000/svg">
<rect x="0.125" y="-0.00012207" width="33.875" height="33.1779" rx="16.589" fill="white"/>
<path d="M12.1439 9.04741C15.8054 8.73566 19.4877 8.73566 23.1493 9.04741L24.9134 9.1976C26.0878 9.29759 27.0936 9.98365 27.6147 10.965C27.6814 11.0905 27.6314 11.2426 27.5086 11.317L20.1893 15.7548C18.6195 16.7066 16.6402 16.7265 15.0507 15.8066L7.68253 11.5423C7.56349 11.4734 7.50885 11.3316 7.56249 11.2068C8.03926 10.0975 9.11115 9.30561 10.3797 9.1976L12.1439 9.04741Z" fill="#474343"/>
<path d="M7.5565 13.4627C7.37432 13.3572 7.14186 13.4707 7.12063 13.6769C6.82424 16.555 6.89597 19.4603 7.33583 22.3251C7.56771 23.8354 8.82624 24.9933 10.3797 25.1255L12.1439 25.2757C15.8054 25.5875 19.4877 25.5875 23.1493 25.2757L24.9134 25.1255C26.4669 24.9933 27.7254 23.8354 27.9573 22.3251C28.41 19.3768 28.4728 16.3856 28.1457 13.4254C28.1227 13.2177 27.8863 13.1063 27.705 13.2163L21.1116 17.2139C18.9878 18.5016 16.3098 18.5286 14.1593 17.2841L7.5565 13.4627Z" fill="#474343"/>
</svg>
