<svg width="35" height="34" viewBox="0 0 35 34" fill="none" xmlns="http://www.w3.org/2000/svg">
<rect x="0.750244" y="-0.00012207" width="33.875" height="33.1779" rx="16.589" fill="white"/>
<path d="M8.92719 14.7138C11.1657 19.489 15.149 23.2856 20.1012 25.3438L20.895 25.6902C22.7112 26.4828 24.8462 25.8806 25.954 24.2635L26.9913 22.7491C27.3286 22.2567 27.2259 21.5935 26.7548 21.2213L23.2366 18.4414C22.7199 18.0331 21.96 18.1282 21.5647 18.6507L20.4763 20.0891C17.6836 18.7398 15.4163 16.5191 14.0387 13.7839L15.5073 12.7179C16.0407 12.3307 16.1378 11.5865 15.7209 11.0804L12.8826 7.63452C12.5026 7.17314 11.8256 7.0725 11.3229 7.40264L9.76603 8.42509C8.10459 9.51619 7.49323 11.6245 8.3211 13.4081L8.92628 14.7119L8.92719 14.7138Z" fill="#474343"/>
</svg>
