<svg width="34" height="34" viewBox="0 0 34 34" fill="none" xmlns="http://www.w3.org/2000/svg">
<g filter="url(#filter0_b_28_102)">
<rect width="33.875" height="33.1779" rx="16.589" fill="white"/>
<path d="M16.3535 13.4434C14.2568 13.4434 12.5572 15.1081 12.5572 17.1616C12.5572 19.2152 14.2568 20.8799 16.3535 20.8799C18.4501 20.8799 20.1498 19.2152 20.1498 17.1616C20.1498 15.1081 18.4501 13.4434 16.3535 13.4434Z" fill="#474343"/>
<path fill-rule="evenodd" clip-rule="evenodd" d="M10.2438 6.95824C14.2715 6.51734 18.4355 6.51734 22.4632 6.95824C24.6808 7.20098 26.4693 8.91225 26.7296 11.0918C27.2112 15.1246 27.2112 19.1987 26.7296 23.2315C26.4693 25.411 24.6808 27.1223 22.4632 27.365C18.4355 27.8059 14.2715 27.8059 10.2438 27.365C8.02626 27.1223 6.23767 25.411 5.9774 23.2315C5.49581 19.1987 5.49581 15.1246 5.9774 11.0918C6.23767 8.91225 8.02626 7.20098 10.2438 6.95824ZM22.194 10.2972C21.5489 10.2972 21.0259 10.8095 21.0259 11.4413C21.0259 12.0732 21.5489 12.5854 22.194 12.5854C22.8391 12.5854 23.3621 12.0732 23.3621 11.4413C23.3621 10.8095 22.8391 10.2972 22.194 10.2972ZM10.805 17.1616C10.805 14.1603 13.2892 11.7273 16.3535 11.7273C19.4178 11.7273 21.902 14.1603 21.902 17.1616C21.902 20.1629 19.4178 22.596 16.3535 22.596C13.2892 22.596 10.805 20.1629 10.805 17.1616Z" fill="#474343"/>
</g>
<defs>
<filter id="filter0_b_28_102" x="-4" y="-4" width="41.875" height="41.178" filterUnits="userSpaceOnUse" color-interpolation-filters="sRGB">
<feFlood flood-opacity="0" result="BackgroundImageFix"/>
<feGaussianBlur in="BackgroundImageFix" stdDeviation="2"/>
<feComposite in2="SourceAlpha" operator="in" result="effect1_backgroundBlur_28_102"/>
<feBlend mode="normal" in="SourceGraphic" in2="effect1_backgroundBlur_28_102" result="shape"/>
</filter>
</defs>
</svg>
