<svg width="40" height="40" viewBox="0 0 60 60" fill="none" xmlns="http://www.w3.org/2000/svg">
<rect width="60" height="60" rx="29.5" fill="#2BABE3"/>
<path d="M24.8123 6.09027C20.1205 7.17298 16.4213 9.24817 12.8123 12.8121C2.88745 22.6918 2.88745 37.8497 12.8123 47.594C17.8198 52.5113 23.1431 54.7219 30.0002 54.767C37.3085 54.767 43.1732 52.1504 48.3611 46.5564C52.6469 41.9098 54.5867 36.8572 54.5867 30.2256C54.5867 23.5038 52.3762 17.9549 47.91 13.2632C42.0002 7.03764 32.9777 4.24065 24.8123 6.09027ZM35.5942 7.44366C44.3912 9.51884 51.113 16.6016 53.0529 25.7143C55.1281 35.6391 49.9852 46.3309 40.8724 50.9324C31.489 55.7143 20.9777 54.0001 13.489 46.5113C8.93256 41.9549 6.76715 36.7219 6.76715 30.2256C6.76715 23.5038 8.84234 18.5865 13.7145 13.7143C19.7596 7.71433 27.3837 5.54892 35.5942 7.44366Z" fill="#35405A"/>
<path d="M29.2335 8.39106C27.5192 9.29331 27.2485 10.5565 28.4214 12.4061C28.9628 13.2632 29.2786 14.1655 29.0981 14.4362C28.9628 14.6617 27.3387 14.8873 25.5342 14.8873C21.9252 14.8873 21.1132 15.3384 20.5267 17.6843C20.3462 18.4061 20.0305 18.9474 19.8049 18.9474C19.5793 18.9474 18.9929 19.3535 18.4966 19.8497C17.5944 20.752 17.2335 24.0001 17.9553 25.0828C18.3162 25.6693 20.9327 27.0677 21.6545 27.0677C21.9252 27.0677 22.1056 25.3084 22.1056 22.1956C22.1056 18.9926 22.2861 17.1429 22.647 16.782C23.0079 16.4211 25.3989 16.2407 30.4515 16.2407C35.5041 16.2407 37.8951 16.4211 38.256 16.782C38.6169 17.1429 38.7974 18.9926 38.7974 22.1956C38.7974 25.2632 38.9778 27.0677 39.2485 27.0677C39.5192 27.0677 40.4214 26.752 41.2786 26.4362L42.8575 25.7595V22.6016C42.8575 19.579 42.8124 19.3986 41.7297 19.1279C41.0079 18.9474 40.5117 18.4061 40.3312 17.6392C39.7899 15.4287 38.8876 14.8873 35.8199 14.8873C31.8049 14.8873 31.4891 14.7068 32.3011 12.8572C33.2936 10.4211 33.1132 9.15797 31.6696 8.39106C30.632 7.8497 30.2711 7.8497 29.2335 8.39106ZM31.5793 9.87978C31.8951 10.5114 31.8049 10.9174 31.1733 11.4587C30.4515 12.1354 30.3162 12.1354 29.6395 11.3685C28.9628 10.6467 28.9628 10.4662 29.5944 9.56399C30.3162 8.48128 30.8575 8.57151 31.5793 9.87978ZM20.662 22.9174C20.4816 24.5414 19.2184 24.5414 19.038 22.8723C18.9478 22.1505 19.1282 21.2933 19.444 20.9324C19.9402 20.3008 20.0756 20.3459 20.3914 20.9775C20.6169 21.3384 20.7523 22.2407 20.662 22.9174ZM41.865 22.2858C42.0455 23.7745 41.0981 25.173 40.5568 24.2708C40.0605 23.549 40.0154 21.4738 40.4666 21.0226C41.053 20.4362 41.7297 21.0677 41.865 22.2858Z" fill="#35405A"/>
<path d="M25.5342 20.2557C23.8199 22.1504 25.85 23.8196 28.241 22.5113C29.5042 21.8346 29.6395 20.8422 28.5568 20.0301C27.429 19.173 26.4365 19.2632 25.5342 20.2557Z" fill="#35405A"/>
<path d="M32.5716 19.9399C31.534 20.9775 32.4813 23.4587 33.925 23.4587C34.9174 23.4587 36.1806 21.3384 35.8648 20.3008C35.549 19.2633 33.4738 19.0377 32.5716 19.9399Z" fill="#35405A"/>
<path d="M26.6167 26.0752C26.6167 27.9248 31.6693 28.8271 33.3836 27.2932C34.6468 26.1654 34.5114 25.6692 33.1129 26.1654C31.6242 26.7519 28.6017 26.7519 27.4738 26.1654C27.0227 25.8948 26.6167 25.8496 26.6167 26.0752Z" fill="#35405A"/>
<path d="M15.2032 27.8347C15.0228 27.97 14.8874 28.782 14.8874 29.594C14.8874 30.6316 14.4363 31.579 13.534 32.6166C12.7671 33.5189 12.1807 34.6918 12.1807 35.3685C12.1807 36.0452 12.722 37.1279 13.534 37.985C14.4814 38.9324 14.8874 39.8347 14.8874 40.8271C14.8874 41.6392 15.1581 42.4963 15.4739 42.767C16.2408 43.3986 28.8724 46.9174 30.3611 46.9174C31.895 46.9174 44.6619 43.3986 45.4739 42.767C45.7446 42.4963 46.0153 41.594 46.0153 40.782C46.0153 39.6542 46.3762 38.9324 47.3686 38.0301C48.316 37.2181 48.722 36.4061 48.722 35.5038C48.722 34.6918 48.2258 33.6091 47.3686 32.6166C46.4213 31.579 46.0153 30.6316 46.0153 29.5489C46.0153 28.7369 45.8348 27.9249 45.6092 27.7444C45.3837 27.6091 42.2709 28.3309 38.7521 29.3234C35.2333 30.3159 31.4889 31.1279 30.4062 31.1279C29.3686 31.1279 25.6694 30.3159 22.2408 29.3234C15.3837 27.3384 15.6092 27.3835 15.2032 27.8347ZM18.5416 29.594C19.895 29.955 22.9626 30.9023 25.3987 31.6241L29.7747 32.9775V39.2482C29.7747 42.7219 29.6393 45.564 29.4589 45.564C28.6468 45.564 17.3235 42.2256 16.8273 41.8196C15.7897 41.0527 16.1506 39.0226 17.5942 37.6692C19.3085 36.0452 19.3085 34.7369 17.6393 32.8422C16.9626 32.0301 16.2859 30.8121 16.1506 30.0903C16.0153 29.4136 15.9701 28.8722 16.0153 28.8722C16.0604 28.8722 17.1882 29.188 18.5416 29.594ZM44.6619 30.361C44.6619 30.9474 44.0754 31.985 43.3085 32.7068C42.4062 33.564 41.9551 34.4662 41.9551 35.3234C41.9551 36.2256 42.4062 36.9925 43.3085 37.8046C44.8874 39.2031 45.1581 41.2331 43.8498 41.9098C42.8574 42.4512 32.3912 45.564 31.6243 45.564C31.2634 45.564 31.128 43.8948 31.2183 39.158L31.3536 32.7519L37.2183 31.0828C44.2559 29.0076 44.6619 29.0076 44.6619 30.361ZM17.4137 34.0602C18.0453 35.0076 18.0904 35.4587 17.6844 36.3159C17.0077 37.8046 15.3386 37.7595 13.9401 36.2707L12.8574 35.0978L14.1205 34.0151C15.7446 32.6166 16.4664 32.6617 17.4137 34.0602ZM46.6468 33.8798C48.0904 35.0076 48.1356 35.4587 46.8273 36.5865C45.519 37.6241 44.7521 37.6692 43.6694 36.6768C42.6769 35.7745 42.6318 35.2331 43.5792 33.9249C44.4363 32.7068 45.113 32.6617 46.6468 33.8798Z" fill="#35405A"/>
<path d="M22.1055 36.2708C22.1055 38.2557 22.2859 39.6993 22.5566 39.6993C22.8273 39.6993 23.0077 38.346 23.0077 36.5866C23.0077 34.8272 22.8273 33.2933 22.5566 33.158C22.2859 32.9775 22.1055 34.1505 22.1055 36.2708Z" fill="#35405A"/>
<path d="M33.6094 33.3836C33.4289 33.6542 33.9252 33.8347 34.6921 33.8347H36.0906V36.767C36.0906 38.4362 36.271 39.6993 36.5417 39.6993C36.8124 39.6993 36.9928 38.4362 36.9928 36.767C36.9928 33.9249 37.038 33.8347 38.1207 33.8347C38.7522 33.8347 39.2485 33.6091 39.2485 33.3836C39.2485 33.1129 38.0755 32.9324 36.5868 32.9324C35.0981 32.9324 33.7447 33.1129 33.6094 33.3836Z" fill="#35405A"/>
</svg>
