<svg width="158" height="72" viewBox="0 0 201 92" fill="none" xmlns="http://www.w3.org/2000/svg">
<path d="M45.3042 76.0996C64.1394 76.0996 79.4083 61.022 79.4083 42.4227C79.4083 23.8235 64.1394 8.74585 45.3042 8.74585C26.4691 8.74585 11.2002 23.8235 11.2002 42.4227C11.2002 61.022 26.4691 76.0996 45.3042 76.0996Z" fill="#2BABE3"/>
<path fill-rule="evenodd" clip-rule="evenodd" d="M44.5363 10.3526C42.3605 11.0492 40.7569 12.6838 40.7569 14.21C40.7569 15.2936 41.1801 16.1496 42.2257 17.1619C43.323 18.2285 44.2823 19.9854 43.8685 20.1913C42.8088 20.7207 40.8901 20.9126 36.6859 20.9126H32.281L31.1383 21.4435C30.1977 21.8832 29.8952 22.154 29.4139 23.0116C29.0119 23.818 28.7229 24.6746 28.5549 25.558L28.2806 27.0672L27.1127 27.3768C23.9415 28.2204 23.8114 28.4294 23.8114 32.6846C23.8114 36.4291 23.8694 36.6071 25.4072 37.5127C26.4308 38.1179 30.3325 39.5807 30.5065 39.4259C30.5771 39.3624 30.6821 36.005 30.7417 31.9633C30.8592 23.8119 30.8718 23.7422 32.2904 23.0518C32.9284 22.7423 33.9317 22.7159 45.458 22.7159C56.9843 22.7159 57.9844 22.7407 58.6256 23.0518C59.9643 23.7035 59.9941 23.8661 60.0599 31.1475C60.121 37.8037 60.2402 39.3423 60.6948 39.3423C61.0005 39.3423 64.4569 38.1133 65.5668 37.6055C66.037 37.395 66.4713 37.0158 66.5967 36.7217C66.7221 36.4275 66.8349 34.522 66.8553 32.4602C66.8992 28.0656 67.0199 28.3133 64.3394 27.3087L62.6542 26.6756L62.2796 25.1276C61.6228 22.4079 60.85 21.4915 58.8921 21.1169C58.2964 21.0039 56.1786 20.911 54.1894 20.911C50.7407 20.911 47.5868 20.5767 47.1024 20.1603C47.0068 20.0767 47.2278 19.5752 47.5946 19.0427C48.5822 17.6124 49.5885 14.9298 49.6074 13.6744C49.6215 12.7968 49.5227 12.498 49.0305 11.9222C48.3737 11.1482 46.9848 10.365 45.9988 10.1993C45.5099 10.1546 45.0168 10.2072 44.5488 10.3541M44.2353 12.4222C43.6192 13.0692 43.1145 13.7441 43.1145 13.9237C43.1145 14.3014 44.171 15.4252 45.0504 15.984L45.6571 16.3679L46.7324 15.4391C47.3595 14.8989 47.8062 14.3555 47.8062 14.1125C47.8062 13.7101 45.9518 11.382 45.5599 11.2906C45.447 11.2643 44.8498 11.7705 44.2353 12.416M38.5231 27.8783C37.153 28.5222 36.0698 29.855 36.0698 30.8999C36.0698 31.6661 36.6969 32.6785 37.3678 32.9865C38.0873 33.3177 39.7536 33.3503 40.4026 33.0453C40.9861 32.7185 41.5508 32.3598 42.094 31.971C43.1913 31.2048 43.3198 31.0423 43.3198 30.4123C43.3198 29.7823 43.1944 29.6182 41.8103 28.6352C40.1863 27.482 39.6376 27.3551 38.5184 27.8783M50.2218 28.1879C49.1496 28.8303 48.2201 29.8659 48.2201 30.4169C48.2201 30.5918 48.6809 31.4138 49.2421 32.2419C50.2077 33.6629 50.3096 33.7496 51.084 33.8069C51.7894 33.8595 52.0245 33.7651 52.755 33.1428C54.0436 32.0422 54.8305 30.8488 54.8305 29.9943C54.8305 27.7669 52.4697 26.8427 50.2218 28.1879ZM26.5672 30.0454C26.0154 30.5578 25.9402 30.7853 25.865 32.0252C25.7772 33.5732 26.0092 34.4152 26.7647 35.2573L27.2726 35.8208L27.9373 34.892C28.5298 34.0608 28.6019 33.8007 28.6019 32.5391C28.6019 31.3612 28.5094 30.9788 28.0611 30.2946C27.7633 29.8426 27.4451 29.4711 27.3541 29.4711C27.2632 29.4711 26.909 29.7312 26.5704 30.0501M62.8329 30.4154C62.0962 31.711 62.1056 33.1289 62.8596 34.6258C63.1731 35.2449 63.4694 35.7418 63.5289 35.7418C63.6967 35.7418 64.1857 35.1428 64.6466 34.3719C65.1075 33.601 65.2219 31.7543 64.841 30.8612C64.5996 30.2931 63.8315 29.468 63.543 29.468C63.4474 29.468 63.1292 29.8922 62.8329 30.4123M83.923 34.0948C83.8619 34.2357 83.8415 34.9415 83.876 35.6629L83.9403 36.974L84.7397 37.0328L85.5392 37.0916V48.0634L84.7397 48.1222L83.9403 48.181V51.2212H90.9771V48.181L90.071 48.1222L89.165 48.0634V37.0638H95.5622V51.3156H99.1864V37.0638H104.306V33.8332H94.1702C85.8621 33.8332 84.0155 33.8796 83.9246 34.0902M115.919 34.0716C115.862 34.2016 115.84 38.1148 115.872 42.7648L115.927 51.2212L117.687 51.2769L119.446 51.3311V44.096H127.335V51.3311L129.094 51.2769L130.853 51.2212V33.9292L129.094 33.8735L127.335 33.8177V40.8655H119.449V33.8332H117.732C116.56 33.8332 115.988 33.9091 115.919 34.0716ZM134.259 34.0716C134.203 34.2016 134.182 38.1148 134.212 42.7648L134.269 51.2212L136.027 51.2769L137.786 51.3311V45.3932C137.786 40.3392 137.83 39.494 138.081 39.7308C138.238 39.8856 140.219 42.5543 142.47 45.6625L146.568 51.3156H150.148V33.8239L148.389 33.8796L146.629 33.9354L146.522 39.7061L146.416 45.4783L142.497 39.9924C140.337 36.974 138.421 34.3549 138.252 34.1722C137.996 33.9044 137.587 33.8394 136.15 33.8394C134.918 33.8394 134.331 33.9137 134.269 34.0778M153.25 34.07C153.192 34.2047 153.169 38.121 153.2 42.771L153.255 51.2274L155.015 51.2831L156.774 51.3373V45.9613V40.5853L159.467 45.9535L162.16 51.3218H163.062C163.559 51.3218 164.056 51.215 164.168 51.0849C164.281 50.9549 165.468 48.6377 166.807 45.9365L169.236 41.0203L169.343 46.1285L169.45 51.2289L171.208 51.2846L172.967 51.3388V33.8471H169.182L166.789 38.5436C165.476 41.1302 164.143 43.7802 163.831 44.4257C163.519 45.0712 163.204 45.613 163.143 45.613C163.082 45.613 161.732 42.9815 160.149 39.7726L157.273 33.9292L155.305 33.8735C153.852 33.8332 153.311 33.8827 153.235 34.0639M176.091 33.9601C175.859 34.1676 175.935 44.6517 176.176 45.983C176.646 48.5711 178.15 50.3528 180.438 51.0385C182.006 51.5029 184.61 51.5029 186.29 51.0261C187.158 50.7659 187.961 50.327 188.645 49.7384C189.329 49.1499 189.879 48.425 190.259 47.6114C190.747 46.5077 190.765 46.2693 190.833 40.1519L190.902 33.8332H187.273L187.209 39.9615C187.151 45.4814 187.105 46.1532 186.749 46.8003C186.166 47.8436 185.244 48.2754 183.6 48.2754C181.738 48.2754 180.894 47.873 180.214 46.6609C179.686 45.7183 179.681 45.6656 179.609 39.7726L179.538 33.8332H177.886C176.977 33.8332 176.162 33.8905 176.091 33.9601ZM38.9902 38.0498C39.5514 38.9306 40.7647 39.9723 41.6817 40.3593C44.066 41.3686 48.0837 41.1689 50.1466 39.9398C50.9617 39.4507 52.2848 38.0126 52.2848 37.6179C52.2848 37.5328 51.6185 37.717 50.805 38.025C46.8453 39.5265 43.4813 39.525 40.1345 38.025C39.6811 37.8064 39.2147 37.6152 38.7378 37.4523C38.6689 37.4523 38.7864 37.7247 38.998 38.0575M63.9052 42.0404C49.7798 45.726 46.7998 46.3421 44.3105 46.0944C42.5172 45.9148 38.498 44.9845 30.008 42.7803C23.4901 41.0884 20.2092 40.3036 19.6621 40.3036C19.3251 40.3036 19.0351 41.689 19.0351 43.2725C19.0351 44.1765 18.8971 45.1625 18.7043 45.6486C18.3438 46.5619 17.2292 47.6965 16.0065 48.3962C15.4098 48.7435 14.9147 49.2381 14.5699 49.8313C14.225 50.4245 14.0421 51.096 14.0392 51.78C14.0141 53.8697 14.5095 54.6111 17.3311 56.6281C18.6714 57.5894 19.0257 58.4485 19.0304 60.7518C19.0304 62.5041 19.0789 62.7146 19.5398 63.1558C20.2248 63.8152 20.9506 64.1186 23.0872 64.6216C24.0842 64.8569 28.906 66.0628 33.8047 67.3011C43.6725 69.7918 44.8325 70.0255 46.4001 69.8351C46.9974 69.7623 50.7971 68.8661 54.843 67.8429C58.8889 66.8197 63.8315 65.5876 65.8254 65.1046C70.3244 64.021 70.4795 63.9576 71.2633 63.1635C71.8809 62.535 71.9013 62.4545 71.9013 60.6156C71.9013 58.337 72.1584 57.6915 73.4093 56.8092C75.571 55.2845 76.325 54.4873 76.7012 53.3279C77.2953 51.5075 76.8831 50.0107 75.4832 48.9163C75.1007 48.616 74.2887 47.9287 73.6774 47.39C72.3497 46.2151 71.9029 45.1099 71.8951 42.9676C71.8951 42.011 71.7665 41.2974 71.522 40.8361L71.1536 40.141L63.9036 42.0326M20.7171 42.5682C20.7171 43.0326 21.4225 45.9474 21.6153 46.2833C21.7375 46.4953 22.5323 47.3111 23.3804 48.0959C25.2614 49.8342 25.9136 50.8822 25.9151 52.1809C25.9151 53.4997 25.4448 54.2025 23.2769 56.077C22.1357 57.0646 21.319 57.9423 21.1717 58.337C20.5979 59.8757 21.2155 61.97 22.3599 62.3617C22.8427 62.5304 32.3923 64.9777 42.6379 67.5565L44.4093 68.0023L44.345 58.6203L44.2808 49.2383L43.6412 48.6764C42.9718 48.0897 39.8618 47.2198 26.2615 43.8158C23.5058 43.1255 21.1309 42.5249 20.9835 42.4815C20.8362 42.4382 20.7171 42.4815 20.7171 42.5651M60.1665 44.9381C47.3124 48.2507 47.4269 48.2197 47.0397 48.746C46.7528 49.1361 46.6885 50.5138 46.5788 58.5274C46.4597 67.2299 46.4754 67.8537 46.8139 67.8537C47.1525 67.8537 62.6229 63.9607 66.1358 62.987C67.5842 62.5861 68.1235 62.3276 68.832 61.696C69.5876 61.0227 69.7397 60.7503 69.8666 59.8525C70.0516 58.5321 69.6926 57.6962 68.6126 56.9114C66.4634 55.3634 65.7173 54.656 65.3536 53.8155C64.9476 52.8829 64.8717 51.8423 65.1382 50.8619C65.4047 49.8814 65.998 49.0182 66.8224 48.4117C69.4434 46.5247 69.7569 46.1176 69.7569 44.6007C69.7569 43.6224 69.5484 42.5698 69.3572 42.5883C69.2835 42.5883 65.1451 43.6502 60.1618 44.935M105.151 44.0976V45.6176H113.459V42.5682H105.151V44.0898M19.5947 48.9349C18.9285 49.1407 17.7496 49.8559 16.1021 51.0524C15.9454 51.1685 15.8121 51.5679 15.8121 51.9394C15.8121 52.523 15.9814 52.7521 17.038 53.5973C17.6801 54.1165 18.3709 54.5742 19.1009 54.9641C22.0166 56.3061 24.8272 53.1716 23.222 50.3698C22.4241 48.9767 21.1215 48.4643 19.5947 48.9349ZM69.2271 48.9225C68.426 49.2321 67.9479 49.7104 67.5294 50.6051C66.8773 51.9982 67.3554 53.8403 68.5953 54.7087C69.9434 55.6545 71.0925 55.4826 73.3529 53.9873C74.8139 53.0214 75.0506 52.783 75.1258 52.2088C75.2073 51.5896 75.1101 51.4642 73.6304 50.2924C71.6568 48.7305 70.572 48.3931 69.2271 48.9225ZM30.8671 52.1654C31.2307 52.3063 31.5913 52.5663 31.6665 52.7443C31.7418 52.9224 31.806 54.591 31.806 56.4594C31.806 58.3277 31.7433 59.9933 31.6665 60.1744C31.5897 60.3555 31.2307 60.6125 30.8671 60.7534C30.2636 60.9886 30.4156 61.0103 32.6588 61.0103C34.902 61.0103 35.054 60.9886 34.4505 60.7534C34.0869 60.6125 33.7263 60.3524 33.6511 60.1744C33.4692 59.7565 33.4692 53.1716 33.6511 52.7536C33.7263 52.5756 34.0869 52.3156 34.4505 52.1747C35.054 51.941 34.902 51.9177 32.6588 51.9177C30.4156 51.9177 30.2636 51.941 30.8671 52.1747M50.9194 52.7846C50.6796 54.348 50.7627 54.5415 51.2721 53.6143C51.8396 52.5849 52.7989 52.0942 54.2505 52.0942H55.2631V55.964C55.2631 59.5583 55.2318 59.8679 54.8321 60.3215C54.5912 60.5928 54.2769 60.7905 53.926 60.8911C53.6642 60.936 54.553 60.9794 55.9027 60.9871C57.4781 60.9964 58.1914 60.9422 57.8982 60.8323C56.8448 60.4531 56.7555 60.0723 56.7555 55.9424V52.0772H57.7227C59.4062 52.0772 60.6274 52.7552 61.0146 53.9084C61.1603 54.3418 61.2011 54.1932 61.2152 53.1685L61.234 51.8868H51.0558L50.9194 52.7676" fill="#1C1664"/>
</svg>
