<svg width="62" height="58" viewBox="0 0 158 156" fill="none" xmlns="http://www.w3.org/2000/svg">
<path d="M12.3603 4.12752C11.7514 4.85877 14.7303 8.54752 17.4459 10.4325C20.573 12.61 24.3584 14.0075 30.0366 15.1288C32.8509 15.6813 33.9207 15.8438 42.7095 17.0625C44.0755 17.2575 45.8859 17.5013 46.7418 17.6313C49.0953 17.9563 51.6299 18.4275 56.2547 19.435C60.8466 20.4263 66.5905 22.425 71.0343 24.57C77.4037 27.625 82.0778 30.94 87.7889 36.4488C89.303 37.9113 90.0437 38.35 91.2451 38.4475C92.2326 38.545 92.2655 38.5125 93.4505 36.9688C94.8989 35.1 95.8864 33.995 98.3222 31.6063C101.021 28.9575 101.367 28.6488 103.803 26.715C113.135 19.3213 124.129 14.6088 136.851 12.5288C138.662 12.2363 140.242 12.0738 144.422 11.765L145.903 11.6513L143.846 11.2775C134.531 9.55502 124.771 9.53877 116.278 11.2288C107.588 12.9513 99.0135 16.51 92.9568 20.8975C92.1668 21.4663 91.4591 21.9375 91.3932 21.9375C91.311 21.9375 91.1299 21.7263 90.9818 21.4825C90.4716 20.6538 88.4801 18.655 87.3116 17.7938C83.2135 14.8525 78.6709 13.2275 70.1949 11.7163C68.6643 11.44 64.1876 10.92 61.6366 10.725C60.3693 10.6275 59.1514 10.5138 58.9209 10.4813C58.6905 10.4325 56.8472 10.335 54.8064 10.2375C52.7655 10.1563 49.6549 10.01 47.8939 9.91252C46.1328 9.83127 43.088 9.66877 41.1459 9.58752C37.3276 9.39252 30.9253 8.87252 29.4605 8.62877C28.9668 8.54752 28.1439 8.41752 27.6501 8.36877C23.5355 7.91377 18.6474 6.51627 15.2405 4.85877C13.2326 3.86752 12.6895 3.73752 12.3603 4.12752Z" fill="#2D308F"/>
<path d="M145.163 14.2675C140.225 18.265 140.423 18.1025 138.003 20.345C130.317 27.4463 127.059 33.5238 125.742 43.1438C125.051 48.3113 124.886 53.6575 124.936 70.3625C124.985 84.435 124.968 86.06 124.705 87.8313C124.294 90.5613 124.014 91.8775 123.273 94.4938C118.319 111.865 103.457 124.426 85.0076 126.848C82.3414 127.189 76.4987 127.254 74.1451 126.945C68.9608 126.279 65.2247 125.271 60.8962 123.386C49.0626 118.235 39.632 107.965 35.8795 96.1188C34.0856 90.415 33.7564 87.2138 33.5918 73.45L33.4766 64.4313L32.8018 62.4813C30.152 54.8438 26.3666 48.1813 20.9024 41.6C18.7299 38.9838 14.6153 34.8563 12.7885 33.4588L12.3276 33.1175L12.3935 61.3763C12.4428 89.0013 12.4593 89.6675 12.7885 91.975C14.1051 100.945 16.8043 108.518 21.3633 116.106C24.2106 120.819 26.9591 124.345 31.1066 128.586C40.3233 138.028 51.5149 144.446 64.1056 147.534C69.1089 148.769 72.6145 149.191 78.4243 149.289C82.4401 149.354 83.4276 149.321 86.0445 149.029C96.7754 147.778 106.617 144.17 116.097 137.995C122.862 133.591 128.491 128.391 133.148 122.281C133.823 121.388 134.416 120.624 134.465 120.575C134.58 120.461 135.897 118.479 136.884 116.919C137.806 115.489 139.946 111.524 140.489 110.256C143.698 102.863 145.015 98.15 145.936 90.5938C146.167 88.725 146.216 84.0288 146.266 51.0575C146.315 20.7025 146.282 13.65 146.117 13.65C146.002 13.6662 145.574 13.9425 145.163 14.2675ZM26.3172 85.67C26.6135 87.62 26.8768 90.0413 26.7781 90.1225C26.7287 90.1713 26.3995 90.2525 26.0374 90.3013L25.3956 90.3825L25.2803 89.4725C25.2145 88.985 25.1158 88.5463 25.0499 88.5138C24.9841 88.465 24.1283 88.5463 23.1243 88.66C22.1368 88.79 20.8201 88.9363 20.2112 88.985L19.092 89.0988L19.0591 88.4975C19.0426 88.1725 19.0262 87.7825 19.0262 87.6363C19.0097 87.3925 19.4047 87.3113 21.8899 86.9863C23.4699 86.7913 24.8031 86.6288 24.836 86.6288C24.8689 86.6125 24.8524 86.1738 24.7866 85.6538C24.6878 84.7275 24.6878 84.6788 25.0499 84.6138C26.1033 84.4188 26.1033 84.4188 26.3172 85.67ZM137.493 85.8C138.662 85.8975 139.748 85.9625 139.913 85.9625C140.176 85.9625 140.225 86.0925 140.225 86.775C140.225 87.36 140.16 87.62 139.978 87.685C139.699 87.7988 132.803 87.3113 132.671 87.165C132.572 87.0675 132.655 85.7838 132.77 85.5888C132.819 85.5075 133.428 85.4913 134.119 85.54C134.811 85.605 136.325 85.7188 137.493 85.8ZM137.148 89.31C137.905 89.57 138.81 90.35 139.172 91.0325C139.583 91.8125 139.534 93.405 139.073 94.315C138.58 95.29 138.119 95.6475 136.983 95.9725C135.897 96.2813 134.712 96.1675 133.642 95.6313C132.737 95.1763 132.441 94.8675 132.013 93.925C131.568 92.9825 131.585 92.2025 132.046 91.065C132.803 89.18 134.794 88.4975 137.148 89.31ZM131.881 90.285C132.013 90.4313 131.651 91.3738 131.371 91.6013C131.157 91.78 131.157 91.8775 131.321 92.2025C131.453 92.4463 131.486 92.7875 131.42 93.1125L131.305 93.6325L130.745 93.0963C130.433 92.8038 130.153 92.4463 130.103 92.3163C129.939 91.7963 130.301 91.0813 130.943 90.6425C131.634 90.1713 131.716 90.1388 131.881 90.285ZM27.3541 92.1375C27.5351 92.625 27.7162 93.535 27.7491 94.1688C27.8314 95.1275 27.782 95.3875 27.5022 95.8425C27.1072 96.46 26.597 96.6875 25.626 96.6875C25.1651 96.6875 24.836 96.5738 24.5891 96.3463L24.2106 95.9888L23.8156 96.46C23.2724 97.0938 21.0835 98.2475 21.0012 97.955C20.9683 97.8413 20.8531 97.4675 20.7378 97.1263C20.6391 96.7688 20.6062 96.4275 20.672 96.3625C20.7543 96.2813 21.2974 95.9725 21.8899 95.68C22.9433 95.1438 22.9597 95.1275 23.0091 94.4288C23.0585 93.7625 23.042 93.73 22.6799 93.8113C20.4416 94.3638 20.2441 94.3963 20.096 94.12C20.0137 93.9575 19.9149 93.5838 19.8491 93.2588L19.7503 92.6738L22.0051 92.1538C23.256 91.8613 24.6878 91.5363 25.1816 91.4063C25.6753 91.2925 26.3008 91.195 26.5641 91.2113C26.992 91.2438 27.0743 91.3413 27.3541 92.1375ZM141.476 93.0313C141.723 93.405 141.723 93.47 141.476 93.8438C141.147 94.3313 140.472 94.38 140.225 93.9413C139.995 93.5025 140.011 93.1775 140.324 92.885C140.703 92.5113 141.163 92.56 141.476 93.0313ZM134.432 97.2888C136.21 97.8738 137.74 98.41 137.822 98.4913C137.888 98.5563 137.839 98.9788 137.674 99.4338C137.411 100.23 137.395 100.246 136.637 100.36C136.21 100.409 135.42 100.555 134.876 100.685C134.333 100.799 133.428 100.945 132.852 101.01C132.276 101.075 131.865 101.173 131.947 101.221C132.013 101.286 133.066 101.66 134.267 102.034L136.456 102.733L136.341 103.253C136.193 103.968 135.946 104.358 135.732 104.276C135.617 104.244 134.053 103.708 132.243 103.106C130.433 102.505 128.935 102.001 128.902 101.969C128.754 101.823 129.462 100.1 129.692 100.019C130.301 99.8238 133.428 99.2875 133.922 99.2875C134.218 99.2875 134.465 99.2388 134.465 99.1575C134.465 99.0925 133.56 98.7513 132.473 98.3938C131.371 98.0363 130.449 97.6625 130.4 97.565C130.317 97.3375 130.811 96.2 131.009 96.2C131.107 96.2 132.638 96.6875 134.432 97.2888ZM28.786 97.7763C28.9176 98.1175 29.0493 98.475 29.0822 98.5725C29.1151 98.67 28.5391 98.9788 27.782 99.2713C25.1651 100.279 24.7043 100.474 24.2928 100.815C23.7003 101.303 23.6016 101.888 24.0295 102.424C24.5397 103.074 25.1651 102.993 27.7162 102.001C28.9341 101.514 30.0039 101.173 30.0862 101.221C30.1685 101.27 30.3331 101.595 30.4318 101.92C30.6951 102.7 30.8597 102.798 31.3699 102.456C31.6003 102.31 31.8143 102.213 31.8308 102.245C32.127 102.7 32.4233 103.188 32.4233 103.253C32.4233 103.415 31.2876 104 30.9749 104C30.7939 104 30.4153 103.805 30.1356 103.578L29.6418 103.171L27.9631 103.838C25.2639 104.91 24.2435 104.878 23.1408 103.675C22.466 102.928 22.1533 101.936 22.2685 100.913C22.4001 99.8075 23.2724 99.125 25.9222 98.0525C27.1072 97.5813 28.177 97.1913 28.3087 97.175C28.4733 97.175 28.6708 97.435 28.786 97.7763ZM34.2995 106.649C33.8058 107.591 33.7235 107.64 33.3778 107.071C33.0487 106.535 33.0651 105.966 33.4272 105.008L33.5918 104.569L34.0856 105.349C34.5628 106.096 34.5628 106.129 34.2995 106.649ZM31.0243 105.316C32.4233 105.69 33.4437 106.941 33.6576 108.518C33.7893 109.525 34.0856 109.72 34.6287 109.216L35.0237 108.859L35.3693 109.298C35.8137 109.85 35.8137 109.948 35.287 110.419C34.8097 110.858 33.7893 110.971 33.4601 110.646C33.312 110.5 33.1474 110.598 32.7689 111.02C32.0941 111.784 30.8433 112.418 29.7406 112.548C28.9999 112.629 28.7037 112.596 28.1112 112.304C26.2349 111.41 25.3626 109.346 26.1526 107.656C26.7287 106.389 28.5556 105.186 29.9545 105.154C30.1849 105.138 30.6622 105.219 31.0243 105.316ZM126.236 106.113C126.236 106.259 126.088 106.519 125.643 107.218C125.594 107.299 123.866 107.738 123.816 107.673C123.783 107.64 123.948 107.299 124.162 106.909C124.491 106.356 124.705 106.178 125.117 106.096C125.989 105.934 126.236 105.934 126.236 106.113ZM129.116 106.454C129.939 106.633 131.387 106.941 132.375 107.153C133.346 107.364 134.185 107.575 134.251 107.624C134.3 107.689 134.169 108.063 133.955 108.485C133.56 109.216 133.543 109.233 132.901 109.135C132.539 109.086 132.078 109.005 131.897 108.94C131.601 108.859 131.47 108.989 131.107 109.606C130.877 110.029 130.68 110.451 130.68 110.549C130.68 110.646 130.959 111.004 131.288 111.345L131.914 111.979L131.519 112.694C131.305 113.1 131.042 113.425 130.943 113.409C130.778 113.393 126.795 109.281 125.956 108.258L125.594 107.819L126.186 106.876C126.713 106.015 126.812 105.934 127.207 106.031C127.437 106.096 128.31 106.291 129.116 106.454ZM127.322 112.629C128.886 113.896 130.186 114.969 130.186 115.034C130.169 115.083 129.939 115.408 129.643 115.749L129.1 116.366L127.964 115.456C127.338 114.969 126.779 114.563 126.713 114.563C126.631 114.563 125.824 115.489 125.215 116.285C125.133 116.415 125.479 116.789 126.236 117.39C126.861 117.894 127.388 118.365 127.388 118.43C127.371 118.495 127.141 118.82 126.845 119.161L126.318 119.763L124.327 118.186C123.224 117.309 121.924 116.269 121.413 115.863C120.903 115.456 120.492 115.099 120.492 115.05C120.492 115.001 120.739 114.676 121.035 114.335L121.595 113.685L122.648 114.53C123.207 115.001 123.734 115.375 123.8 115.375C123.866 115.375 124.244 114.936 124.656 114.416L125.413 113.458L124.458 112.661C123.932 112.239 123.471 111.8 123.438 111.719C123.388 111.589 124.228 110.37 124.392 110.338C124.425 110.338 125.742 111.378 127.322 112.629ZM35.9453 111.703C36.2745 112.076 36.5378 112.45 36.5378 112.515C36.5378 112.58 36.4062 112.938 36.2251 113.311C36.0606 113.685 35.7478 114.4 35.5339 114.888C35.3199 115.375 34.9908 116.09 34.7768 116.464C34.5628 116.854 34.4312 117.163 34.497 117.163C34.5628 117.163 35.106 116.773 35.6985 116.301C36.291 115.83 37.081 115.245 37.4266 114.985L38.0685 114.498L38.5458 115.05C38.7926 115.359 38.9901 115.684 38.9572 115.781C38.9243 115.863 38.052 116.578 37.0151 117.358C35.9783 118.138 34.711 119.113 34.2008 119.519C33.6741 119.925 33.1968 120.25 33.131 120.25C33.0651 120.234 32.7689 119.925 32.4891 119.535L31.9624 118.853L33.0981 116.334C33.7235 114.953 34.2337 113.815 34.2337 113.783C34.2337 113.75 33.921 113.978 33.5424 114.286C33.1474 114.611 32.2751 115.261 31.6003 115.765L30.366 116.659L29.9216 116.155C29.6583 115.863 29.4608 115.538 29.4608 115.44C29.4608 115.326 30.4483 114.514 31.6497 113.62C32.8347 112.726 34.102 111.768 34.4641 111.491C34.8097 111.215 35.1553 110.988 35.2376 110.988C35.3035 110.988 35.6326 111.313 35.9453 111.703ZM41.9362 118.723C42.7756 119.291 43.9441 120.559 43.9441 120.9C43.9441 120.981 43.6643 121.209 43.3351 121.404C42.7591 121.761 42.7262 121.761 42.5616 121.469C41.5412 119.746 39.9612 119.178 38.6774 120.088C38.1343 120.478 37.5253 121.501 37.5253 122.038C37.5253 122.493 37.9039 123.175 38.4141 123.663L38.8585 124.053L39.3851 123.533L39.9118 123.013L39.5333 122.753C39.3358 122.623 39.1712 122.428 39.1712 122.33C39.1712 122.086 39.8295 121.388 40.0599 121.388C40.1587 121.388 40.6689 121.794 41.1956 122.298L42.1501 123.208L41.4589 123.955C41.0639 124.378 40.4549 125.028 40.0764 125.401L39.4181 126.1L38.8585 125.824C38.0356 125.418 36.5708 124.036 36.1593 123.273C35.6491 122.281 35.682 121.03 36.2416 120.055C37.1468 118.544 38.2331 117.943 39.8789 118.024C40.8664 118.089 41.1297 118.17 41.9362 118.723ZM117.167 118.251C117.348 118.398 116.492 119.015 116.081 119.031C115.719 119.048 115.604 119.145 115.571 119.454C115.505 119.909 114.896 120.608 114.698 120.478C114.616 120.429 114.55 120.055 114.55 119.633C114.55 119.048 114.649 118.788 114.995 118.43C115.406 118.008 115.505 117.975 116.262 118.073C116.723 118.138 117.134 118.203 117.167 118.251ZM120.097 118.966C121.018 119.405 122.039 120.559 122.368 121.566C122.714 122.606 122.598 123.565 121.99 124.459C120.607 126.49 118.253 126.799 116.476 125.158C115.373 124.134 114.995 123.338 114.978 122.103C114.978 121.388 115.077 120.965 115.324 120.559C115.785 119.844 116.575 119.096 117.151 118.853C117.875 118.528 119.29 118.576 120.097 118.966ZM47.9928 123.76C49.4906 124.751 49.9514 125.19 50.3628 126.035C50.9718 127.335 50.692 128.765 49.5564 130.033C48.3714 131.365 46.7585 131.625 44.9316 130.78C43.977 130.341 42.2983 129.204 42.2983 128.976C42.2983 128.911 42.6768 128.326 43.1212 127.693C43.8947 126.62 43.9276 126.506 43.6808 126.246C43.4339 125.986 43.4503 125.921 43.7137 125.45C43.977 125.044 44.0922 124.963 44.4543 125.044C44.9151 125.141 44.9645 125.109 45.9685 123.679C46.2318 123.305 46.5281 123.013 46.6433 123.013C46.7585 123.013 47.351 123.354 47.9928 123.76ZM113.974 124.215C114.353 124.443 114.847 124.898 115.093 125.239C116.443 127.173 116.344 128.895 114.764 130.406C114.106 131.024 112.345 132.275 112.115 132.275C112.032 132.275 111.604 131.755 111.16 131.138C110.452 130.13 110.304 130.016 109.942 130.081C109.613 130.163 109.432 130.065 109.136 129.675C108.79 129.188 108.773 129.139 109.037 128.863C109.284 128.586 109.267 128.505 108.527 127.465L107.753 126.36L108.56 125.629C110.485 123.874 112.477 123.354 113.974 124.215ZM102.783 126.75C103.293 127.319 102.881 128.7 102.19 128.7C101.927 128.7 101.877 128.57 101.877 128.001L101.861 127.319L101.548 127.709C101.153 128.164 100.725 128.066 100.725 127.498C100.725 126.62 102.174 126.1 102.783 126.75ZM55.3003 128.213C55.8435 128.489 56.2878 128.765 56.2878 128.83C56.2878 129.123 54.9383 136.256 54.8724 136.321C54.7737 136.419 53.2431 135.558 53.2595 135.411C53.276 135.33 53.3253 134.908 53.3912 134.436L53.5064 133.591L52.6506 133.169L51.7947 132.73L51.0706 133.445L50.3464 134.144L49.6058 133.754C49.2108 133.543 48.8981 133.299 48.9145 133.234C48.9803 133.055 54.1483 127.725 54.247 127.725C54.2964 127.725 54.7572 127.953 55.3003 128.213ZM106.338 130C107.424 132.389 107.621 133.234 107.309 134.128C107.078 134.826 106.058 135.736 105.186 135.98C103.803 136.403 102.832 136.094 101.993 135.005C101.614 134.518 99.7379 130.536 99.7379 130.228C99.7379 130.065 101.186 129.431 101.301 129.529C101.367 129.594 102.322 131.609 102.947 133.023C103.145 133.478 103.49 134.014 103.704 134.193C104.478 134.908 105.663 134.42 105.663 133.396C105.663 133.12 105.251 131.966 104.741 130.829C104.231 129.708 103.787 128.684 103.737 128.57C103.655 128.375 104.939 127.693 105.218 127.774C105.301 127.79 105.795 128.798 106.338 130ZM60.2872 130.504C60.6164 130.618 60.8962 130.764 60.8962 130.845C60.8962 130.91 60.567 131.755 60.1885 132.714C59.7935 133.673 59.1845 135.184 58.8389 136.045C58.4933 136.923 58.1806 137.638 58.1147 137.638C57.8843 137.638 56.617 137.101 56.617 137.004C56.617 136.825 57.4893 134.501 58.2958 132.519C58.7072 131.528 59.0858 130.601 59.1351 130.423C59.201 130.26 59.3491 130.163 59.4643 130.211C59.5631 130.244 59.9416 130.374 60.2872 130.504ZM98.7504 132.194C98.9808 132.909 99.5074 134.388 99.886 135.493C100.281 136.581 100.561 137.573 100.511 137.686C100.413 137.946 99.0795 138.369 98.9314 138.174C98.8656 138.109 98.6351 137.475 98.4047 136.793C98.1908 136.094 97.9274 135.525 97.8287 135.525C97.6312 135.525 95.8701 136.11 95.6233 136.256C95.541 136.305 95.6891 136.923 95.9524 137.67C96.2158 138.401 96.3968 139.051 96.3639 139.116C96.3145 139.181 95.9524 139.344 95.541 139.474C94.8662 139.718 94.7839 139.701 94.6522 139.458C94.5864 139.311 94.0433 137.784 93.4837 136.094C92.9076 134.388 92.4139 132.958 92.381 132.876C92.2822 132.714 93.7635 132.064 93.961 132.194C94.0433 132.243 94.2737 132.779 94.4712 133.38C94.6851 133.981 94.8991 134.518 94.9485 134.599C95.0637 134.713 95.9854 134.485 96.9729 134.095L97.4172 133.916L97.0222 132.746C96.7918 132.096 96.6108 131.479 96.6108 131.381C96.6108 131.154 97.516 130.829 97.9933 130.861C98.2237 130.894 98.4047 131.203 98.7504 132.194ZM65.2412 132.275C65.307 132.34 65.2576 132.941 65.126 133.608C64.9943 134.258 64.9285 134.859 65.0108 134.924C65.1753 135.103 67.1503 135.541 67.3149 135.444C67.3808 135.395 67.5453 134.891 67.6606 134.306C67.9403 132.893 67.9568 132.876 68.862 133.006C69.8001 133.153 69.8001 133.055 69.0595 136.338C68.0885 140.66 68.1708 140.449 67.5947 140.335C67.3314 140.286 67.0187 140.238 66.9199 140.238C66.3768 140.221 66.3274 139.994 66.6566 138.629C66.8376 137.881 66.9528 137.231 66.9035 137.183C66.6895 136.971 64.5993 136.549 64.5006 136.695C64.4512 136.776 64.2701 137.426 64.1056 138.141C63.8422 139.263 63.7599 139.425 63.4472 139.425C63.0522 139.425 62.0483 139.116 62.0483 138.986C62.0483 138.921 62.3281 137.654 63.2168 133.819C63.4143 133.006 63.5953 132.259 63.6283 132.129C63.6776 131.966 63.8751 131.934 64.4018 132.015C64.7803 132.08 65.1589 132.194 65.2412 132.275ZM91.9366 133.201C91.986 133.461 92.0518 133.738 92.0847 133.851C92.1835 134.144 91.8214 134.339 90.982 134.453C90.5376 134.518 90.192 134.664 90.192 134.761C90.192 134.875 90.406 136.143 90.6693 137.605C91.1795 140.563 91.2124 140.433 89.9945 140.611L89.402 140.693L89.221 139.945C89.1222 139.523 88.9576 138.629 88.8754 137.963C88.612 136.045 88.3322 134.875 88.1347 134.875C88.0524 134.891 87.641 134.956 87.2295 135.038C86.3737 135.2 86.242 135.086 86.242 134.225V133.64L88.6779 133.218C91.8543 132.665 91.8049 132.665 91.9366 133.201ZM75.7745 134.193C77.8318 135.281 78.0622 138.71 76.2189 140.433C74.5895 141.96 71.7751 141.538 70.7218 139.62C70.3597 138.954 70.2774 138.613 70.2774 137.621C70.2939 135.688 71.0181 134.55 72.6803 133.9C73.6843 133.494 74.6389 133.591 75.7745 134.193ZM84.5139 134.079C84.5633 134.144 84.5303 134.485 84.4481 134.843L84.267 135.493L83.2137 135.411C81.4856 135.265 80.6626 135.98 80.6133 137.654C80.6133 138.385 80.9095 139.198 81.3374 139.539C81.8147 139.929 82.8681 140.108 83.5264 139.929C84.2835 139.734 84.3658 139.783 84.5139 140.579C84.6456 141.278 84.5139 141.359 82.9503 141.489C80.9095 141.651 79.2637 140.66 78.8522 139.003C78.6218 138.125 78.6218 137.248 78.8522 136.419C79.0662 135.639 80.3828 134.306 81.1728 134.079C81.7489 133.9 84.3328 133.916 84.5139 134.079ZM51.5643 135.59C51.9099 135.85 51.9264 136.549 51.6137 136.809C50.8566 137.426 49.7868 136.403 50.4451 135.688C50.7908 135.314 51.1364 135.281 51.5643 135.59ZM74.0299 142.22C74.606 142.789 73.7995 143.878 73.0918 143.504C72.3512 143.098 72.5487 142.025 73.3716 142.025C73.6349 142.025 73.9147 142.106 74.0299 142.22Z" fill="#2D308F"/>
<path d="M134.3 91.0163C133.313 91.4063 132.951 92.2513 133.395 93.1125C133.757 93.795 134.778 94.2338 135.979 94.25C136.736 94.25 137 94.1688 137.411 93.8275C137.839 93.4863 137.921 93.2913 137.921 92.7063C137.921 92.1213 137.839 91.9263 137.427 91.585C136.605 90.9188 135.222 90.6588 134.3 91.0163Z" fill="#2D308F"/>
<path d="M24.9013 93.3075C24.2924 93.5025 24.243 93.7138 24.6051 94.4125C24.9178 95.0138 25.4116 95.16 25.9218 94.835C26.3332 94.575 26.4155 94.185 26.2345 93.47C26.1193 93.08 25.7736 93.0313 24.9013 93.3075Z" fill="#2D308F"/>
<path d="M29.3782 107.185C28.6376 107.445 28.0451 107.949 27.7159 108.582C27.3538 109.265 27.4361 109.817 27.9628 110.354C28.5717 110.939 29.2301 110.971 30.3822 110.435C32.1267 109.639 32.6205 107.851 31.2874 107.169C30.6949 106.876 30.2505 106.876 29.3782 107.185Z" fill="#2D308F"/>
<path d="M128.062 108.16C129.396 109.72 129.544 109.801 129.856 109.054C130.103 108.436 130.005 108.29 129.247 108.16C128.902 108.111 128.441 108.014 128.211 107.949C127.816 107.851 127.816 107.868 128.062 108.16Z" fill="#2D308F"/>
<path d="M117.512 120.364C117.084 120.478 116.624 121.258 116.64 121.843C116.657 122.525 117.381 123.581 118.154 124.101C119.635 125.076 121.265 124.053 120.705 122.493C120.162 120.965 118.73 120.006 117.512 120.364Z" fill="#2D308F"/>
<path d="M46.7581 125.71L46.3466 126.295L46.7581 126.604C46.9721 126.766 47.2025 126.913 47.2848 126.913C47.5316 126.913 47.3835 127.4 47.0214 127.823L46.6264 128.278L46.1162 127.92C45.8529 127.725 45.5731 127.563 45.5237 127.563C45.425 127.563 44.6021 128.733 44.6021 128.879C44.6021 129.139 45.82 129.675 46.396 129.675C47.6304 129.675 48.8648 128.343 48.8812 127.01C48.8812 126.506 48.766 126.279 48.2393 125.759C47.8937 125.401 47.4987 125.125 47.3835 125.125C47.2518 125.125 46.9721 125.385 46.7581 125.71Z" fill="#2D308F"/>
<path d="M110.567 125.889C110.222 126.116 109.942 126.344 109.942 126.409C109.958 126.458 110.172 126.75 110.436 127.059L110.896 127.595L111.39 127.254C111.67 127.075 111.966 126.913 112.049 126.913C112.411 126.913 112.97 128.213 112.625 128.213C112.542 128.213 112.312 128.359 112.098 128.521L111.719 128.814L112.18 129.48C112.444 129.854 112.723 130.146 112.806 130.163C112.888 130.163 113.234 129.87 113.596 129.513C114.106 128.976 114.221 128.733 114.221 128.196C114.221 127.4 113.744 126.441 113.069 125.873C112.378 125.304 111.407 125.304 110.567 125.889Z" fill="#2D308F"/>
<path d="M53.4238 130.748L52.6338 131.609L53.2263 131.885C53.5555 132.048 53.8517 132.129 53.9011 132.096C53.9505 132.048 54.0492 131.641 54.1315 131.203C54.2138 130.764 54.3455 130.276 54.3948 130.114C54.5923 129.626 54.2632 129.838 53.4238 130.748Z" fill="#2D308F"/>
<path d="M73.2891 135.298C71.9066 135.964 71.7091 138.84 72.9764 139.604C73.6347 140.01 74.0791 139.994 74.6387 139.555C75.2312 139.1 75.5439 138.32 75.5439 137.313C75.5439 135.623 74.5235 134.713 73.2891 135.298Z" fill="#2D308F"/>
<path d="M75.8732 45.3213C74.4414 45.5163 72.7132 45.8088 72.0055 45.9875C71.6434 46.0688 70.837 46.2475 70.228 46.3938C64.1384 47.8075 57.3905 51.7075 52.8809 56.4038C48.5359 60.905 45.3924 66.3 43.8947 71.825C42.8743 75.53 42.4957 78.195 42.4628 81.9C42.4299 86.4338 43.3022 90.87 45.162 95.7613C46.0343 98.0363 48.1739 101.693 50.1489 104.276C54.0495 109.395 60.1061 113.799 66.5743 116.236C67.6605 116.643 68.5986 116.935 68.6645 116.903C68.7468 116.854 68.7961 112.141 68.7961 106.438V96.0375L69.1747 95.9563C69.3722 95.9075 74.0957 95.8913 79.6586 95.9075L89.7805 95.9563L89.8628 106.454L89.9451 116.968L91.2618 116.513C92.957 115.944 93.0228 115.911 95.1295 115.001C97.6641 113.88 101.943 110.988 104.511 108.648C108.296 105.186 111.983 99.7425 113.826 94.9325C114.419 93.3888 115.324 90.025 115.735 87.8313C116.064 86.1413 116.114 85.3613 116.114 81.9C116.114 77.5613 115.9 75.92 114.879 72.15C111.571 60.0438 101.762 50.1638 89.6159 46.735C87.9536 46.2638 86.3901 45.9063 84.5138 45.5813C82.868 45.2888 77.3216 45.1263 75.8732 45.3213ZM83.3618 49.985C87.6738 50.5375 91.8872 51.9513 95.4422 54.0313C101.729 57.7038 106.749 63.44 109.349 69.875C110.946 73.84 111.588 77.3175 111.588 81.9C111.588 85.2475 111.357 87.1975 110.6 90.1063C108.905 96.6388 105.021 102.489 99.3263 107.071C97.7957 108.306 95.6232 109.736 95.4916 109.606C95.4257 109.541 95.3434 105.381 95.327 100.328L95.2611 91.1788L92.7759 91.13L90.2743 91.0813L90.2249 86.7263L90.192 82.3875L92.6113 82.3713C93.9609 82.355 96.3638 82.3225 97.9932 82.29L100.923 82.2575L101.417 81.7863C101.68 81.5425 103.392 79.8688 105.202 78.0975L108.494 74.8638L106.617 73.0113C105.597 72.0038 104.692 71.175 104.593 71.175C104.494 71.175 103.161 72.41 101.631 73.9375L98.8326 76.7H91.8049H84.7607V83.7688V90.8375L79.3788 90.805L73.9805 90.7563L73.9311 83.72L73.8982 76.7H66.8541H59.8264L56.9461 73.8563L54.0659 71.0125L52.1403 72.9138L50.2147 74.8313L53.8849 78.52L57.5551 82.2088L60.5834 82.29C62.2457 82.3225 64.698 82.3713 66.0476 82.3713L68.467 82.3875L68.4341 86.7263L68.3847 91.0813L65.883 91.13L63.3649 91.1788V100.344C63.3649 105.398 63.2991 109.541 63.2168 109.59C62.8876 109.801 59.1516 107.104 57.3741 105.365C52.848 100.945 50.3299 97.0938 48.6676 92.0238C47.3509 88.01 47.1534 86.6938 47.1534 81.8188C47.1534 77.8213 47.1864 77.48 47.6143 75.5138C48.7828 70.135 51.0541 65.4388 54.3622 61.5063C55.8105 59.8 58.9047 56.9075 60.5505 55.7538C64.8955 52.6988 69.6355 50.7813 74.5566 50.0663C75.2314 49.9688 75.972 49.855 76.2024 49.8225C77.338 49.66 81.6172 49.7575 83.3618 49.985Z" fill="#2D308F"/>
<path d="M71.8739 57.85L69.6026 57.9313L68.2037 61.425C67.4301 63.3425 66.6895 65.1463 66.5578 65.4388C66.0805 66.4788 66.0312 66.4625 69.1912 66.4625H72.0549L72.3347 65.4063L72.6309 64.35H79.3459H86.0609L86.2584 65.2438C86.3737 65.7313 86.5547 66.2188 86.6534 66.3C86.7851 66.4138 87.9372 66.4463 89.6653 66.43L92.4632 66.3813L90.9326 62.5625C90.0932 60.4663 89.3197 58.5488 89.2045 58.2888L89.007 57.85H86.6534H84.2834L84.448 58.37C84.5303 58.6625 84.5962 59.0038 84.5962 59.1013C84.5962 59.2638 83.4605 59.3125 79.4118 59.3125C73.7172 59.3125 73.8489 59.345 74.1945 58.3375C74.2932 58.0775 74.3262 57.8338 74.2603 57.8175C74.1945 57.785 73.1247 57.8013 71.8739 57.85Z" fill="#2D308F"/>
<path d="M57.6205 67.5025C56.6824 68.4288 55.9418 69.2738 55.9747 69.3713C56.0076 69.4688 57.1103 70.6063 58.427 71.9063C60.2209 73.6938 60.9286 74.2788 61.3236 74.36C61.6199 74.4088 69.9314 74.425 79.8064 74.3925L97.7624 74.3438L100.231 71.9063C101.581 70.5738 102.7 69.4038 102.7 69.3063C102.7 69.2088 101.926 68.38 100.972 67.4375L99.2437 65.7313L97.3839 67.5675L95.5405 69.3875H79.3291H63.1176L61.3072 67.6C60.3197 66.6088 59.4639 65.8125 59.4145 65.8125C59.3651 65.8125 58.5586 66.5763 57.6205 67.5025Z" fill="#2D308F"/>
<path d="M117.677 88.1401C117.677 88.2701 117.628 88.4813 117.578 88.6276C117.512 88.7901 117.726 89.0176 118.319 89.3751C118.78 89.6676 119.125 89.9438 119.076 90.0088C119.043 90.0738 118.599 90.2201 118.088 90.3338C117.463 90.4801 117.183 90.6101 117.183 90.7888C117.183 90.9351 117.035 91.4551 116.87 91.9588C116.706 92.4626 116.426 93.3401 116.262 93.9088C115.982 94.9001 115.982 94.9488 116.278 95.1601C116.657 95.4363 116.805 95.3388 116.936 94.7376C117.068 94.1363 117.2 94.1363 119.043 94.6726C120.623 95.1276 120.969 95.1113 120.969 94.5263C120.969 94.2013 120.82 94.1038 119.784 93.7951C119.125 93.6001 118.335 93.3888 118.039 93.3401C117.479 93.2263 117.479 93.2263 117.595 92.5276C117.66 92.0076 117.644 91.8126 117.496 91.8126C117.052 91.8126 117.628 91.5201 118.829 91.1138C119.899 90.7401 120.162 90.7076 120.771 90.8701C121.15 90.9676 121.578 91.0001 121.709 90.9351C122.055 90.8051 121.973 89.9601 121.627 89.9113C120.393 89.7651 120.08 89.6188 119.059 88.8063C117.907 87.8801 117.677 87.7663 117.677 88.1401Z" fill="#2D308F"/>
<path d="M38.4466 88.4975C37.3768 88.7087 36.4716 88.9037 36.4551 88.92C36.4222 88.9525 36.4387 89.18 36.488 89.44C36.5703 89.8625 36.6197 89.895 37.1957 89.7975C37.5414 89.7487 37.9364 89.6512 38.0845 89.6025C38.3643 89.4887 38.6112 89.9437 38.7099 90.7725C38.7593 91.2112 38.7099 91.26 37.9857 91.4387C36.9653 91.6825 36.8995 91.7312 36.9982 92.2187C37.0805 92.69 36.8666 92.69 39.8949 92.1212C40.8001 91.9425 41.5572 91.78 41.5901 91.7475C41.623 91.715 41.6066 91.5037 41.5407 91.26C41.442 90.8537 41.4091 90.8375 40.5697 90.935L39.6974 91.0487L39.5822 90.285C39.5164 89.8625 39.4999 89.4887 39.5493 89.44C39.5987 89.3912 39.9443 89.31 40.3064 89.2612C41.0964 89.1475 41.2116 89.0175 41.0799 88.465C40.9482 87.9937 40.9812 87.9937 38.4466 88.4975Z" fill="#2D308F"/>
<path d="M37.4922 93.535C37.4429 93.5838 37.4429 93.8113 37.5087 94.055C37.6074 94.4288 37.7226 94.4938 38.2658 94.4938C38.8418 94.4938 38.9076 94.5425 39.1051 95.095C39.3026 95.68 39.3026 95.7125 38.8254 96.0863C38.4139 96.4113 38.3481 96.5413 38.4468 96.915C38.5949 97.5325 38.776 97.4513 40.8826 95.9563C42.117 95.0788 42.6272 94.6238 42.5614 94.4613C42.4956 94.3313 42.4133 94.0388 42.3639 93.8275C42.2651 93.4375 42.2651 93.4375 39.9281 93.4375C38.6279 93.4375 37.5416 93.4863 37.4922 93.535ZM41.4751 94.315C41.4751 94.4775 40.1256 95.225 39.9939 95.1438C39.8129 95.03 39.7799 94.5263 39.9445 94.3638C40.0597 94.25 41.4751 94.2013 41.4751 94.315Z" fill="#2D308F"/>
<path d="M115.505 95.9563C115.406 96.1838 115.357 96.395 115.39 96.4275C115.521 96.5575 119.356 97.9875 119.57 97.9875C119.817 97.9875 120.031 97.3213 119.85 97.1425C119.702 96.9963 116.048 95.55 115.834 95.55C115.752 95.55 115.604 95.7288 115.505 95.9563Z" fill="#2D308F"/>
<path d="M41.9688 97.0288C41.3763 97.305 40.504 97.7113 40.0431 97.9225C39.1709 98.2963 39.0886 98.3938 39.2696 98.865C39.4177 99.2225 39.5329 99.2063 40.9484 98.5563C41.6231 98.2313 42.2156 98.02 42.265 98.0525C42.2979 98.1013 42.0511 98.4913 41.689 98.9138C40.5204 100.328 40.29 100.734 40.3888 101.173C40.4546 101.4 40.5863 101.611 40.7015 101.66C40.9484 101.741 44.7996 100.068 44.8819 99.84C44.9148 99.7588 44.8325 99.5475 44.7173 99.4013C44.5034 99.0925 44.3059 99.1413 42.66 99.8888C42.3638 100.035 42.084 100.116 42.0511 100.084C42.0181 100.035 42.3967 99.4825 42.8904 98.8488C43.8615 97.5813 43.8615 97.5488 43.5817 96.9313C43.3513 96.4275 43.269 96.4275 41.9688 97.0288Z" fill="#2D308F"/>
<path d="M114.55 98.02C114.122 98.735 114.122 99.775 114.55 100.23C115.11 100.815 115.982 100.669 116.838 99.8238C117.068 99.6125 117.364 99.4663 117.496 99.4825C117.891 99.5638 117.907 100.246 117.529 100.766C117.085 101.351 117.101 101.514 117.545 101.66C117.99 101.79 118.418 101.319 118.665 100.409C118.944 99.4175 118.566 98.605 117.743 98.41C117.282 98.2963 116.838 98.4913 116.048 99.1575C115.554 99.58 115.472 99.6125 115.258 99.4013C114.978 99.125 115.077 98.6213 115.488 98.2313C115.686 98.0363 115.702 97.9225 115.537 97.7438C115.225 97.37 114.896 97.4513 114.55 98.02Z" fill="#2D308F"/>
<path d="M113.151 101.205C112.773 101.514 112.164 102.44 112.016 102.976C111.917 103.285 112.098 103.431 113.464 104.228C115.735 105.544 115.818 105.576 116.114 105.203C116.459 104.764 116.443 104.731 115.62 104.26C114.402 103.545 114.715 103.106 116.278 103.285C117.068 103.383 117.167 103.35 117.348 103.025C117.447 102.83 117.513 102.651 117.48 102.635C117.282 102.473 116.213 102.213 115.768 102.213C115.406 102.213 115.209 102.131 115.209 101.985C115.209 101.871 115.061 101.579 114.863 101.335C114.468 100.831 113.662 100.766 113.151 101.205ZM114.287 102.131C114.484 102.326 114.501 102.489 114.353 102.863C114.155 103.431 114.188 103.431 113.563 103.106C113.003 102.814 112.954 102.603 113.349 102.18C113.678 101.823 113.958 101.806 114.287 102.131Z" fill="#2D308F"/>
<path d="M43.3677 101.319C42.66 101.644 42.3802 101.904 42.084 102.489C41.7219 103.171 41.7383 103.708 42.1333 104.488C43.1867 106.503 46.5771 105.625 46.5771 103.334C46.5771 101.611 44.9313 100.588 43.3677 101.319ZM45.425 102.375C45.8858 102.83 45.8365 103.269 45.2275 103.919C44.5527 104.634 43.6146 104.845 43.1208 104.406C42.66 103.984 42.7094 103.318 43.2525 102.781C44.0425 102.001 44.8819 101.839 45.425 102.375Z" fill="#2D308F"/>
<path d="M110.469 104.991C110.09 105.528 109.777 106.064 109.777 106.161C109.794 106.373 113.201 108.713 113.48 108.713C113.662 108.696 115.044 106.746 115.044 106.486C115.044 106.226 114.649 105.95 114.452 106.08C114.32 106.178 114.122 106.421 113.48 107.38C113.398 107.494 112.575 107.006 112.575 106.844C112.575 106.746 112.756 106.421 112.987 106.113C113.382 105.593 113.382 105.544 113.118 105.251C112.839 104.959 112.822 104.959 112.575 105.251C112.444 105.43 112.213 105.739 112.065 105.95C111.9 106.21 111.719 106.291 111.538 106.226C111.061 106.048 111.045 105.658 111.505 105.073C111.983 104.455 111.966 104 111.456 104C111.275 104 110.897 104.39 110.469 104.991Z" fill="#2D308F"/>
<path d="M47.0546 105.186C46.6596 105.479 46.0341 105.918 45.6721 106.161C45.31 106.405 44.8162 106.763 44.5693 106.958C44.125 107.331 44.1085 107.331 44.4212 107.721L44.7175 108.111L46.6266 106.763C48.5193 105.43 48.5358 105.43 48.2725 105.04C48.1408 104.829 47.9598 104.65 47.8939 104.65C47.8281 104.65 47.4496 104.894 47.0546 105.186Z" fill="#2D308F"/>
<path d="M108.954 106.828L108.592 107.218L109.596 108.696C110.156 109.509 110.567 110.175 110.534 110.175C110.485 110.175 109.761 109.85 108.905 109.46L107.341 108.745L106.996 109.103C106.798 109.298 106.65 109.509 106.65 109.558C106.65 109.639 108.51 110.468 110.205 111.134L111.044 111.459L111.489 111.004L111.917 110.565L110.896 108.875C110.337 107.933 109.761 107.006 109.612 106.811L109.333 106.454L108.954 106.828Z" fill="#2D308F"/>
<path d="M49.6054 110.191C48.7167 111.004 47.9596 111.719 47.9267 111.784C47.9102 111.849 48.0419 112.044 48.2229 112.206C48.5521 112.515 48.5686 112.499 49.589 111.508C50.1486 110.955 50.6752 110.5 50.7246 110.5C50.7904 110.5 50.5106 111.118 50.0992 111.849C49.4079 113.165 49.3915 113.214 49.6877 113.49C49.9675 113.75 50.0663 113.718 51.3336 113.003C52.6831 112.255 53.1275 112.158 52.5515 112.726C52.3869 112.889 51.9425 113.393 51.5475 113.815C50.8892 114.563 50.8727 114.628 51.1196 114.92C51.2842 115.083 51.4652 115.213 51.5475 115.213C51.6956 115.213 52.2388 114.628 53.7036 112.921L54.6088 111.849L54.115 111.345L53.6048 110.858L52.7983 111.329C52.354 111.589 51.9261 111.8 51.8602 111.8C51.7779 111.8 51.6298 111.914 51.5146 112.044C51.3994 112.174 51.2019 112.288 51.0867 112.288C50.9386 112.288 51.0867 111.865 51.564 111.004C52.3046 109.623 52.3046 109.411 51.5804 108.924C51.2677 108.729 51.1031 108.826 49.6054 110.191Z" fill="#2D308F"/>
<path d="M105.827 110.175L105.481 110.516L107.012 112.125C107.851 113.019 108.625 113.75 108.724 113.75C108.822 113.75 109.036 113.604 109.185 113.441C109.464 113.149 109.415 113.067 108.016 111.637C107.226 110.809 106.551 110.077 106.518 109.996C106.42 109.769 106.173 109.834 105.827 110.175Z" fill="#2D308F"/>
<path d="M70.5733 111.036C69.7668 111.378 69.5858 111.735 69.9314 112.255C70.0466 112.45 70.1618 112.434 70.5568 112.223C70.8366 112.093 71.1 112.028 71.1658 112.076C71.2152 112.141 71.2645 113.23 71.2645 114.514V116.838H71.9229H72.5812V113.75V110.663L71.9723 110.679C71.6266 110.695 71.0012 110.841 70.5733 111.036Z" fill="#2D308F"/>
<path d="M75.2478 110.988C74.2767 111.573 73.964 112.905 74.5565 113.88C74.968 114.546 75.5769 114.774 76.5809 114.66C77.2886 114.579 77.338 114.595 77.2063 114.871C76.943 115.359 76.5644 115.57 75.6592 115.781C74.8692 115.96 74.8034 116.009 74.8034 116.448C74.8034 116.919 74.8198 116.919 75.6592 116.886C76.5644 116.854 77.5848 116.431 78.0292 115.928C79.2307 114.579 79.2471 112.174 78.0621 111.15C77.6013 110.744 77.3709 110.663 76.6467 110.663C76.0707 110.663 75.6098 110.776 75.2478 110.988ZM77.0746 111.93C77.2228 112.093 77.4038 112.45 77.4532 112.726C77.5355 113.133 77.4861 113.279 77.1734 113.49C76.6796 113.815 76.3834 113.815 76.0048 113.474C75.4288 112.954 75.7909 111.638 76.5315 111.638C76.6796 111.638 76.9265 111.768 77.0746 111.93Z" fill="#2D308F"/>
<path d="M80.1026 110.776C80.0533 110.857 79.971 111.41 79.9051 112.044C79.8558 112.661 79.757 113.344 79.7076 113.539C79.6254 113.896 79.6747 113.912 80.5964 113.912C81.4193 113.912 81.6333 113.977 81.946 114.302C82.7854 115.18 81.8143 116.074 80.3824 115.749C79.6583 115.586 79.6254 115.586 79.4772 115.992C79.2304 116.626 79.3949 116.805 80.366 116.919C81.9131 117.114 83.0158 116.675 83.5424 115.667C83.8881 115.017 83.7564 114.01 83.2791 113.506C82.917 113.132 81.732 112.71 81.3041 112.807C81.1231 112.84 81.0572 112.71 81.0572 112.369V111.881L82.2093 111.897H83.3614L83.4601 111.41C83.5095 111.134 83.5095 110.857 83.4766 110.776C83.4437 110.711 82.6866 110.662 81.7979 110.662C80.9091 110.662 80.1356 110.711 80.1026 110.776Z" fill="#2D308F"/>
<path d="M85.2051 111.004C84.1517 111.784 83.9378 113.23 84.7442 114.108C85.2051 114.611 85.2873 114.644 86.3078 114.628C87.2623 114.611 87.3611 114.644 87.2294 114.888C86.9826 115.359 86.5876 115.586 85.6988 115.781C84.9088 115.96 84.843 116.009 84.843 116.448C84.843 116.919 84.8594 116.919 85.6988 116.886C86.8344 116.838 87.7726 116.35 88.3321 115.505C88.7601 114.888 88.793 114.693 88.793 113.295V111.768L88.184 111.215C87.6244 110.711 87.4763 110.663 86.6205 110.663C85.9128 110.679 85.5507 110.76 85.2051 111.004ZM87.0978 111.914C87.2788 112.076 87.394 112.401 87.394 112.808C87.394 113.311 87.3117 113.474 86.9826 113.62C86.6534 113.766 86.4723 113.75 86.1596 113.588C85.814 113.409 85.7482 113.246 85.7482 112.678C85.7482 111.719 86.4394 111.313 87.0978 111.914Z" fill="#2D308F"/>
<path d="M104.478 111.426C104.214 111.67 104.247 111.751 105.021 112.743C105.482 113.311 105.827 113.815 105.778 113.848C105.745 113.88 105.235 113.701 104.659 113.425C103.227 112.775 102.717 112.694 102.223 113.084L101.812 113.393L103.194 115.115C103.951 116.074 104.626 116.886 104.708 116.935C104.79 116.984 105.004 116.903 105.185 116.74C105.498 116.464 105.498 116.448 105.054 115.879C104.823 115.554 104.395 115.05 104.132 114.774C103.852 114.481 103.671 114.205 103.721 114.156C103.77 114.108 104.28 114.27 104.856 114.53C106.716 115.375 106.93 115.408 107.374 115.001L107.786 114.644L106.436 112.954C105.696 112.028 105.004 111.231 104.922 111.199C104.823 111.166 104.626 111.264 104.478 111.426Z" fill="#2D308F"/>
<path d="M54.9382 112.58C54.5267 113.051 52.4694 116.058 52.5352 116.09C54.1317 117.276 54.8394 117.666 55.0534 117.488C55.4484 117.163 55.3496 116.935 54.6419 116.513C53.9342 116.074 53.8354 115.798 54.2469 115.359C54.5102 115.083 54.5432 115.083 55.1027 115.456C55.8104 115.928 56.0573 115.96 56.189 115.603C56.3207 115.245 56.3536 115.278 55.7117 114.888C55.0863 114.514 55.0204 114.303 55.3496 113.848C55.5636 113.555 55.6129 113.571 56.3042 114.059C56.9625 114.546 57.0284 114.563 57.2259 114.303C57.555 113.864 57.5057 113.815 56.5017 113.133C55.1686 112.255 55.2015 112.271 54.9382 112.58Z" fill="#2D308F"/>
<path d="M100.676 114.205C100.412 114.481 100.445 114.579 101.219 115.781C102.058 117.098 102.223 117.78 101.795 118.138C101.334 118.511 100.774 118.186 100.116 117.146C99.7705 116.594 99.3425 115.976 99.1615 115.749L98.8159 115.343L98.4209 115.668L98.0259 115.976L98.75 117.098C99.7046 118.593 99.9021 118.788 100.495 119.048C101.63 119.519 103.029 118.544 103.029 117.293C103.029 116.789 102.832 116.334 102.173 115.278C101.696 114.53 101.219 113.913 101.12 113.913C101.021 113.913 100.824 114.043 100.676 114.205Z" fill="#2D308F"/>
<path d="M57.6371 114.433C57.3244 114.741 57.4067 114.953 57.9498 115.261L58.46 115.538L58.0486 116.236C57.8182 116.61 57.4067 117.341 57.1269 117.845L56.6167 118.771L56.9623 119.015C57.1598 119.145 57.3902 119.226 57.4561 119.178C57.5219 119.145 57.9663 118.446 58.4436 117.65C58.9044 116.838 59.3323 116.188 59.3817 116.188C59.4311 116.188 59.7273 116.269 60.0236 116.383C60.5009 116.545 60.6161 116.545 60.7313 116.35C60.83 116.22 60.8959 116.058 60.8959 115.993C60.8959 115.895 58.0815 114.238 57.9004 114.238C57.8675 114.238 57.7523 114.319 57.6371 114.433Z" fill="#2D308F"/>
<path d="M60.3362 118.251C59.4145 120.185 59.3816 120.315 59.6778 120.526C60.1551 120.868 60.3526 120.77 60.6818 120.006C60.8793 119.535 61.0768 119.275 61.2743 119.275C61.6528 119.275 61.8668 119.876 61.7022 120.494C61.4882 121.209 61.5212 121.306 61.9655 121.55C62.5416 121.859 62.7062 121.631 62.7555 120.429C62.7885 119.535 62.8378 119.405 63.1999 119.226C63.4303 119.113 63.7101 118.82 63.8253 118.576C64.138 117.943 63.8089 117.374 62.7885 116.838C61.2743 116.009 61.406 115.928 60.3362 118.251ZM62.5087 117.585C63.1999 118.056 62.7885 118.918 61.9655 118.723C61.5212 118.609 61.4718 118.398 61.7187 117.748C61.8997 117.26 62.0149 117.228 62.5087 117.585Z" fill="#2D308F"/>
<path d="M93.9442 117.764C93.5657 117.861 93.5657 117.894 94.0594 119.177C94.2899 119.779 94.4709 120.331 94.4709 120.429C94.4709 120.526 93.9442 120.12 93.3024 119.535C92.6605 118.95 92.068 118.462 91.9857 118.462C91.5742 118.462 91.0146 118.82 91.0146 119.08C91.0146 119.34 92.249 122.98 92.3807 123.11C92.4959 123.24 93.1542 122.947 93.1542 122.785C93.1542 122.671 92.9732 122.037 92.7428 121.387C92.5124 120.721 92.3478 120.12 92.3642 120.055C92.3971 119.99 92.9403 120.445 93.5657 121.062C94.2076 121.68 94.8165 122.232 94.9317 122.281C95.1128 122.346 95.6724 122.151 95.9357 121.94C96.0674 121.826 94.5532 117.65 94.3886 117.666C94.3063 117.682 94.0924 117.715 93.9442 117.764Z" fill="#2D308F"/>
<path d="M64.9446 118.609C63.7925 119.356 63.3975 121.111 64.1546 122.167C65.1092 123.467 67.2652 123.207 68.0717 121.68C68.4338 120.997 68.3679 119.73 67.9565 119.21C67.2323 118.3 65.8498 118.024 64.9446 118.609ZM66.7715 119.242C67.6931 119.811 66.9525 122.2 65.8498 122.2C65.3725 122.2 64.8458 121.566 64.8458 121.03C64.8458 120.494 65.389 119.34 65.7017 119.226C66.0308 119.096 66.5575 119.096 66.7715 119.242Z" fill="#2D308F"/>
<path d="M69.4707 119.503C69.339 119.665 69.1744 120.315 68.5326 123.354C68.4503 123.711 68.4996 123.793 68.8782 123.89C69.4213 124.02 69.4213 124.036 69.5859 123.24L69.7176 122.606L70.7544 122.525C71.528 122.46 71.8407 122.363 72.0217 122.119C72.6307 121.29 72.4826 120.364 71.6596 119.893C70.9684 119.486 69.6682 119.259 69.4707 119.503ZM70.919 120.413C71.6596 120.786 71.4292 121.713 70.6063 121.713C70.1619 121.713 70.1126 121.664 70.1126 121.176C70.1126 120.884 70.1948 120.559 70.3101 120.445C70.5405 120.218 70.5569 120.218 70.919 120.413Z" fill="#2D308F"/>
<path d="M87.9533 119.6C87.6241 119.73 87.5912 119.909 87.476 122.038C87.4102 123.305 87.3937 124.361 87.4266 124.394C87.4431 124.426 87.6735 124.41 87.9368 124.361C88.3318 124.28 88.3812 124.199 88.3812 123.646C88.3812 123.094 88.4306 123.013 88.842 122.915C89.0889 122.866 89.3852 122.801 89.5004 122.753C89.6156 122.72 89.846 122.915 89.9941 123.175C90.2081 123.565 90.3891 123.663 90.817 123.663C91.0968 123.663 91.3437 123.581 91.3437 123.484C91.3437 123.305 90.3891 121.615 89.5004 120.201C88.9902 119.421 88.6939 119.291 87.9533 119.6ZM89.1383 121.989C88.9572 122.444 88.4635 122.151 88.4306 121.55C88.3812 120.575 88.5458 120.429 88.9079 121.111C89.0724 121.469 89.1877 121.859 89.1383 121.989Z" fill="#2D308F"/>
<path d="M84.2995 120.136C83.1309 120.299 83.098 120.315 83.1474 120.721C83.1968 121.095 83.2626 121.144 83.7893 121.095C84.497 121.03 84.4805 121.014 84.7768 123.289C84.9743 124.784 84.9743 124.8 85.4022 124.686C85.6326 124.638 85.8466 124.573 85.8795 124.556C85.9124 124.524 85.8466 123.728 85.7313 122.769C85.5174 120.884 85.5668 120.738 86.3732 120.738C86.6695 120.738 86.7518 120.656 86.7024 120.364C86.6366 119.925 86.1263 119.876 84.2995 120.136Z" fill="#2D308F"/>
<path d="M74.2273 120.38C73.2892 120.786 72.7461 121.696 72.7461 122.817C72.7461 123.549 73.2728 124.442 73.8982 124.767C74.4742 125.06 75.939 124.93 76.3834 124.54C77.1569 123.857 77.4367 122.184 76.943 121.241C76.548 120.477 75.0667 120.006 74.2273 120.38ZM75.9226 121.582C76.5644 122.427 75.9226 124.15 74.968 124.15C74.0134 124.15 73.569 122.817 74.1451 121.712C74.5565 120.932 75.3794 120.867 75.9226 121.582Z" fill="#2D308F"/>
<path d="M77.9798 122.558C77.9305 123.744 77.9305 124.816 77.9634 124.914C78.0292 125.06 78.4736 125.125 79.4282 125.125C80.7942 125.125 80.8107 125.125 80.8107 124.719C80.8107 124.361 80.7284 124.313 80.284 124.313C78.9838 124.313 79.0002 124.313 79.0002 122.265V120.413H78.523H78.0621L77.9798 122.558Z" fill="#2D308F"/>
<path d="M81.4688 121.176C81.4688 122.054 81.765 124.995 81.8638 125.076C81.8967 125.109 82.1271 125.093 82.374 125.028C82.8183 124.914 82.8183 124.914 82.7196 123.809C82.3904 120.039 82.4727 120.413 81.946 120.413C81.4852 120.413 81.4688 120.445 81.4688 121.176Z" fill="#2D308F"/>
</svg>
